<svg width="46.000000" height="46.000000" viewBox="0 0 46 46" fill="none" xmlns="http://www.w3.org/2000/svg" xmlns:xlink="http://www.w3.org/1999/xlink">
	<desc>
			Created with Pixso.
	</desc>
	<defs>
		<linearGradient x1="0.000000" y1="22.999996" x2="45.999992" y2="22.999996" id="paint_linear_52_1570_0" gradientUnits="userSpaceOnUse">
			<stop stop-color="#0CBAF1"/>
			<stop offset="1.000000" stop-color="#E95CE9"/>
		</linearGradient>
	</defs>
	<circle id="BG" cx="23.000000" cy="23.000000" r="22.999996" fill="#18181B" fill-opacity="1.000000"/>
	<circle id="BG" cx="23.000000" cy="23.000000" r="22.499996" stroke="url(#paint_linear_52_1570_0)" stroke-opacity="1.000000" stroke-width="1.000000"/>
	<path id="Vector" d="M24 11.87C18.1 11.87 13.35 16.61 13.35 22.51C13.35 27.21 16.41 31.21 20.62 32.63C21.16 32.71 21.33 32.4 21.33 32.09C21.33 31.83 21.33 31.16 21.33 30.27C18.36 30.94 17.74 28.85 17.74 28.85C17.25 27.61 16.54 27.3 16.54 27.3C15.57 26.64 16.63 26.64 16.63 26.64C17.7 26.73 18.27 27.75 18.27 27.75C19.21 29.39 20.76 28.9 21.38 28.63C21.47 27.92 21.73 27.48 22.04 27.21C19.69 26.95 17.21 26.02 17.21 21.93C17.21 20.78 17.61 19.81 18.32 19.1C18.23 18.83 17.83 17.76 18.41 16.26C18.41 16.26 19.29 15.99 21.33 17.37C22.18 17.15 23.11 17.01 24 17.01C24.88 17.01 25.81 17.15 26.66 17.37C28.7 15.99 29.59 16.26 29.59 16.26C30.16 17.72 29.81 18.79 29.67 19.1C30.34 19.85 30.78 20.78 30.78 21.93C30.78 26.02 28.3 26.9 25.9 27.17C26.3 27.48 26.61 28.15 26.61 29.12C26.61 30.54 26.61 31.69 26.61 32.05C26.61 32.32 26.79 32.67 27.37 32.58C31.58 31.21 34.64 27.21 34.64 22.51C34.64 16.61 29.9 11.87 24 11.87Z" fill="#FFFFFF" fill-opacity="1.000000" fill-rule="evenodd"/>
</svg>
