<svg width="46.000000" height="46.000000" viewBox="0 0 46 46" fill="none" xmlns="http://www.w3.org/2000/svg" xmlns:xlink="http://www.w3.org/1999/xlink">
	<desc>
			Created with Pixso.
	</desc>
	<defs>
		<linearGradient x1="0.000000" y1="22.999996" x2="45.999992" y2="22.999996" id="paint_linear_52_1563_0" gradientUnits="userSpaceOnUse">
			<stop stop-color="#0CBAF1"/>
			<stop offset="1.000000" stop-color="#E95CE9"/>
		</linearGradient>
	</defs>
	<circle id="BG" cx="23.000000" cy="23.000000" r="22.999996" fill="#18181B" fill-opacity="1.000000"/>
	<circle id="BG" cx="23.000000" cy="23.000000" r="22.499996" stroke="url(#paint_linear_52_1563_0)" stroke-opacity="1.000000" stroke-width="1.000000"/>
	<path id="Vector" d="M22.99 13.87C25.96 13.87 26.31 13.88 27.49 13.94C28.19 13.94 28.89 14.08 29.56 14.32C30.04 14.5 30.47 14.79 30.84 15.15C31.2 15.52 31.48 15.95 31.67 16.43C31.91 17.09 32.04 17.79 32.05 18.5C32.1 19.67 32.12 20.02 32.12 23C32.12 25.97 32.1 26.32 32.05 27.49C32.04 28.2 31.91 28.9 31.67 29.56C31.48 30.04 31.2 30.48 30.84 30.84C30.47 31.2 30.04 31.49 29.56 31.67C28.89 31.92 28.19 32.05 27.49 32.06C26.32 32.11 25.96 32.12 22.99 32.12C20.02 32.12 19.67 32.11 18.49 32.06C17.79 32.05 17.09 31.92 16.43 31.67C15.95 31.49 15.51 31.2 15.15 30.84C14.78 30.48 14.5 30.04 14.31 29.56C14.07 28.9 13.94 28.2 13.93 27.49C13.88 26.32 13.87 25.97 13.87 23C13.87 20.02 13.88 19.67 13.93 18.5C13.94 17.79 14.07 17.09 14.31 16.43C14.5 15.95 14.78 15.52 15.15 15.15C15.51 14.79 15.95 14.5 16.43 14.32C17.09 14.08 17.79 13.94 18.49 13.94C19.67 13.88 20.02 13.87 22.99 13.87ZM22.99 11.87C19.97 11.87 19.59 11.88 18.4 11.93C17.48 11.95 16.57 12.13 15.7 12.45C14.96 12.73 14.29 13.17 13.73 13.73C13.16 14.29 12.73 14.96 12.45 15.71C12.12 16.57 11.95 17.48 11.93 18.41C11.87 19.59 11.86 19.97 11.86 23C11.86 26.02 11.87 26.4 11.93 27.58C11.95 28.51 12.12 29.42 12.45 30.29C12.73 31.03 13.16 31.7 13.73 32.26C14.29 32.82 14.96 33.26 15.7 33.54C16.57 33.87 17.48 34.04 18.4 34.06C19.59 34.11 19.97 34.13 22.99 34.13C26.01 34.13 26.39 34.11 27.58 34.06C28.5 34.04 29.42 33.87 30.28 33.54C31.02 33.25 31.69 32.82 32.25 32.26C32.81 31.7 33.25 31.02 33.54 30.29C33.86 29.42 34.04 28.51 34.05 27.58C34.11 26.4 34.12 26.02 34.12 23C34.12 19.97 34.11 19.59 34.05 18.41C34.04 17.48 33.86 16.57 33.54 15.7C33.26 14.96 32.82 14.29 32.25 13.73C31.7 13.17 31.02 12.73 30.28 12.45C29.42 12.13 28.5 11.95 27.58 11.93C26.39 11.88 26.01 11.87 22.99 11.87Z" fill="#FFFFFF" fill-opacity="1.000000" fill-rule="nonzero"/>
	<path id="Vector" d="M23 17.28C21.86 17.28 20.76 17.62 19.82 18.24C18.88 18.87 18.15 19.76 17.72 20.81C17.28 21.85 17.17 23 17.39 24.11C17.61 25.22 18.15 26.24 18.95 27.04C19.75 27.83 20.77 28.38 21.88 28.6C22.99 28.82 24.14 28.71 25.18 28.27C26.23 27.84 27.12 27.11 27.75 26.17C28.38 25.23 28.71 24.13 28.71 23C28.71 21.48 28.11 20.03 27.04 18.95C25.96 17.88 24.51 17.28 23 17.28ZM23 26.7C22.26 26.7 21.54 26.49 20.93 26.08C20.32 25.67 19.85 25.09 19.57 24.41C19.29 23.74 19.21 22.99 19.36 22.27C19.5 21.55 19.85 20.89 20.37 20.37C20.89 19.85 21.55 19.5 22.27 19.36C22.99 19.21 23.74 19.29 24.41 19.57C25.09 19.85 25.67 20.33 26.08 20.93C26.49 21.54 26.7 22.26 26.7 23C26.7 23.98 26.31 24.92 25.62 25.62C24.92 26.31 23.98 26.7 23 26.7Z" fill="#FFFFFF" fill-opacity="1.000000" fill-rule="nonzero"/>
	<path id="Vector" d="M30.27 17.05C30.27 17.79 29.67 18.39 28.93 18.39C28.19 18.39 27.6 17.79 27.6 17.05C27.6 16.32 28.19 15.72 28.93 15.72C29.67 15.72 30.27 16.32 30.27 17.05Z" fill="#FFFFFF" fill-opacity="1.000000" fill-rule="evenodd"/>
</svg>
