<svg width="65.000000" height="65.000000" viewBox="0 0 65 65" fill="none" xmlns="http://www.w3.org/2000/svg" xmlns:xlink="http://www.w3.org/1999/xlink">
	<desc>
			Created with Pixso.
	</desc>
	<defs>
		<clipPath id="clip77_3380">
			<rect id="Calling" rx="0.000000" width="31.000000" height="31.000000" transform="translate(18.000000 17.500000)" fill="white" fill-opacity="0"/>
		</clipPath>
		<linearGradient x1="0.000000" y1="32.500000" x2="65.000000" y2="32.500000" id="paint_linear_77_3368_0" gradientUnits="userSpaceOnUse">
			<stop stop-color="#0CBAF1"/>
			<stop offset="1.000000" stop-color="#E95CE9"/>
		</linearGradient>
	</defs>
	<circle id="Ellipse 45" cx="32.500000" cy="32.500000" r="32.500000" fill="#18181B" fill-opacity="1.000000"/>
	<circle id="Ellipse 45" cx="32.500000" cy="32.500000" r="32.000000" stroke="url(#paint_linear_77_3368_0)" stroke-opacity="1.000000" stroke-width="1.000000"/>
	<rect id="Calling" rx="0.000000" width="31.000000" height="31.000000" transform="translate(18.000000 17.500000)" fill="#000000" fill-opacity="0"/>
	<g clip-path="url(#clip77_3380)">
		<path id="Combined-Shape" d="M26.37 19.66C27.86 19.68 28.92 20.8 30.27 22.21C30.6 22.56 30.96 22.94 31.36 23.34C33.3 25.28 32.75 26.87 32.3 28.15C31.82 29.54 31.4 30.74 33.91 33.25C36.43 35.77 37.63 35.35 39.01 34.86C40.29 34.41 41.88 33.86 43.83 35.8C44.22 36.2 44.59 36.55 44.94 36.88C46.36 38.23 47.48 39.3 47.5 40.79C47.51 42.06 46.74 43.36 44.83 45.27L43.98 44.7L44.7 45.39C44.28 45.83 43.15 46.98 40.95 47L40.91 47C37.59 47 33.26 44.35 28.04 39.13C22.79 33.89 20.14 29.54 20.16 26.21C20.17 24.01 21.33 22.89 21.76 22.46L21.8 22.42L21.89 22.33C23.8 20.42 25.12 19.63 26.37 19.66ZM26.35 21.66L26.34 21.66C25.74 21.66 24.83 22.26 23.56 23.49L23.31 23.74L23.31 23.74C23.31 23.74 23.29 23.77 23.25 23.81L23.16 23.9C22.84 24.21 22.17 24.86 22.16 26.22C22.15 28.13 23.41 31.67 29.45 37.71C35.46 43.73 39 45 40.91 45L40.94 45C42.3 44.99 42.95 44.32 43.27 44C43.36 43.9 43.44 43.83 43.49 43.78C44.82 42.45 45.5 41.45 45.5 40.81C45.49 40.16 44.68 39.4 43.56 38.33C43.2 37.99 42.82 37.62 42.41 37.21C41.35 36.16 40.83 36.34 39.68 36.75C38.08 37.3 35.9 38.07 32.5 34.67C29.1 31.26 29.86 29.08 30.41 27.49C30.82 26.33 31 25.81 29.94 24.75C29.53 24.34 29.16 23.95 28.82 23.59C27.76 22.48 26.99 21.67 26.35 21.66ZM37.83 24.41C40.6 24.94 42.74 27.08 43.28 29.86C43.39 30.41 43.03 30.93 42.49 31.03C42.43 31.05 42.36 31.05 42.3 31.05C41.83 31.05 41.41 30.72 41.32 30.25C40.93 28.27 39.41 26.75 37.44 26.37C36.9 26.26 36.55 25.74 36.65 25.2C36.76 24.65 37.29 24.3 37.83 24.41ZM37.75 19.67C43.18 20.27 47.41 24.49 48.01 29.93C48.08 30.48 47.68 30.97 47.13 31.03C47.09 31.04 47.06 31.04 47.02 31.04C46.52 31.04 46.08 30.66 46.03 30.15C45.52 25.65 42.03 22.16 37.52 21.66C36.98 21.59 36.58 21.1 36.64 20.55C36.7 20 37.19 19.6 37.75 19.67Z" fill="#FFFFFF" fill-opacity="1.000000" fill-rule="evenodd"/>
	</g>
</svg>
