<svg width="48.000000" height="48.000000" viewBox="0 0 48 48" fill="none" xmlns="http://www.w3.org/2000/svg" xmlns:xlink="http://www.w3.org/1999/xlink">
	<desc>
			Created with Pixso.
	</desc>
	<defs>
		<linearGradient x1="21.229736" y1="28.704025" x2="26.770361" y2="28.704025" id="paint_linear_84_3554_0" gradientUnits="userSpaceOnUse">
			<stop stop-color="#0CBAF1"/>
			<stop offset="1.000000" stop-color="#E95CE9"/>
		</linearGradient>
		<linearGradient x1="28.583252" y1="34.004219" x2="34.087555" y2="34.004219" id="paint_linear_84_3556_0" gradientUnits="userSpaceOnUse">
			<stop stop-color="#0CBAF1"/>
			<stop offset="1.000000" stop-color="#E95CE9"/>
		</linearGradient>
		<linearGradient x1="-0.000244" y1="23.999680" x2="48.000320" y2="23.999680" id="paint_linear_84_3558_0" gradientUnits="userSpaceOnUse">
			<stop stop-color="#0CBAF1"/>
			<stop offset="1.000000" stop-color="#E95CE9"/>
		</linearGradient>
		<linearGradient x1="14.880249" y1="27.858429" x2="22.747467" y2="27.858429" id="paint_linear_84_3560_0" gradientUnits="userSpaceOnUse">
			<stop stop-color="#0CBAF1"/>
			<stop offset="1.000000" stop-color="#E95CE9"/>
		</linearGradient>
		<linearGradient x1="25.252441" y1="27.858429" x2="33.119659" y2="27.858429" id="paint_linear_84_3562_0" gradientUnits="userSpaceOnUse">
			<stop stop-color="#0CBAF1"/>
			<stop offset="1.000000" stop-color="#E95CE9"/>
		</linearGradient>
		<linearGradient x1="4.570801" y1="21.055485" x2="15.994894" y2="21.055485" id="paint_linear_84_3564_0" gradientUnits="userSpaceOnUse">
			<stop stop-color="#0CBAF1"/>
			<stop offset="1.000000" stop-color="#E95CE9"/>
		</linearGradient>
		<linearGradient x1="36.819458" y1="18.935032" x2="42.246269" y2="18.935032" id="paint_linear_84_3566_0" gradientUnits="userSpaceOnUse">
			<stop stop-color="#0CBAF1"/>
			<stop offset="1.000000" stop-color="#E95CE9"/>
		</linearGradient>
		<linearGradient x1="32.578613" y1="23.175266" x2="38.005424" y2="23.175266" id="paint_linear_84_3568_0" gradientUnits="userSpaceOnUse">
			<stop stop-color="#0CBAF1"/>
			<stop offset="1.000000" stop-color="#E95CE9"/>
		</linearGradient>
		<linearGradient x1="20.029419" y1="19.757610" x2="28.190262" y2="19.757610" id="paint_linear_84_3570_0" gradientUnits="userSpaceOnUse">
			<stop stop-color="#0CBAF1"/>
			<stop offset="1.000000" stop-color="#E95CE9"/>
		</linearGradient>
		<linearGradient x1="13.373413" y1="11.993134" x2="16.528240" y2="11.993134" id="paint_linear_84_3572_0" gradientUnits="userSpaceOnUse">
			<stop stop-color="#0CBAF1"/>
			<stop offset="1.000000" stop-color="#E95CE9"/>
		</linearGradient>
		<linearGradient x1="17.885620" y1="12.242737" x2="34.626564" y2="12.242737" id="paint_linear_84_3574_0" gradientUnits="userSpaceOnUse">
			<stop stop-color="#0CBAF1"/>
			<stop offset="1.000000" stop-color="#E95CE9"/>
		</linearGradient>
	</defs>
	<mask id="mask84_3550" mask-type="alpha" maskUnits="userSpaceOnUse" x="0.000000" y="0.000000" width="48.000000" height="48.000000">
		<path id="path4047" d="M0 0L48 0L48 48L0 48L0 0Z" fill="#000000" fill-opacity="1.000000" fill-rule="nonzero"/>
	</mask>
	<g mask="url(#mask84_3550)">
		<path id="path4053 (Stroke)" d="M26.06 28C24.68 28 23.31 28 21.93 28C21.54 27.99 21.23 28.31 21.22 28.7C21.22 29.08 21.54 29.4 21.93 29.4C23.31 29.4 24.68 29.4 26.06 29.4C26.45 29.4 26.77 29.08 26.77 28.7C26.76 28.31 26.45 27.99 26.06 28Z" fill="url(#paint_linear_84_3554_0)" fill-opacity="1.000000" fill-rule="evenodd"/>
		<path id="path4057 (Stroke)" d="M33.98 37.28C34.18 36.95 34.08 36.52 33.75 36.32C31.87 35.16 30.45 33.27 29.97 30.94C29.89 30.56 29.52 30.32 29.14 30.39C28.76 30.47 28.51 30.84 28.59 31.23C29.16 33.95 30.82 36.17 33.01 37.51C33.34 37.72 33.78 37.62 33.98 37.28Z" fill="url(#paint_linear_84_3556_0)" fill-opacity="1.000000" fill-rule="evenodd"/>
		<path id="path4061 (Stroke)" d="M7.61 38.68C12.95 39.97 18.29 36.58 19.4 31.22C19.48 30.84 19.23 30.47 18.85 30.39C18.47 30.32 18.1 30.56 18.02 30.94C17.07 35.52 12.51 38.42 7.94 37.31L7.94 37.31C7.88 37.3 7.82 37.29 7.76 37.27L7.76 37.27C3.48 36.24 0.74 32.03 1.54 27.7C2.22 24.03 3.14 20.33 4.23 16.58C5.24 13.16 8.33 10.77 11.89 10.65L11.89 10.65C19.96 10.37 28.03 10.37 36.1 10.65L36.1 10.65C39.66 10.77 42.75 13.16 43.76 16.58C44.85 20.33 45.77 24.03 46.45 27.7C47.25 32.03 44.51 36.24 40.23 37.27L40.23 37.27C40.2 37.28 40.17 37.29 40.14 37.29L40.14 37.29L40.14 37.29C40.11 37.3 40.08 37.31 40.05 37.31L7.61 38.68ZM7.61 38.68C7.55 38.67 7.49 38.65 7.43 38.64L7.43 38.64C7.43 38.64 7.43 38.64 7.43 38.64C2.42 37.43 -0.78 32.51 0.16 27.44L0.16 27.44C0.85 23.72 1.78 19.97 2.88 16.19L2.88 16.19C4.06 12.18 7.67 9.39 11.85 9.24C19.95 8.96 28.04 8.96 36.14 9.24C40.32 9.39 43.93 12.18 45.11 16.19L45.11 16.19C46.21 19.97 47.14 23.72 47.83 27.44C48.77 32.51 45.57 37.43 40.56 38.64C40.53 38.65 40.5 38.65 40.47 38.66C40.44 38.67 40.41 38.67 40.38 38.68L40.38 38.68C38.81 39.06 37.25 39.03 35.78 38.67C35.41 38.58 35.18 38.2 35.27 37.82C35.36 37.45 35.74 37.22 36.12 37.31C37.37 37.62 38.71 37.64 40.05 37.31L7.61 38.68Z" fill="url(#paint_linear_84_3558_0)" fill-opacity="1.000000" fill-rule="evenodd"/>
		<path id="path4065 (Stroke)" d="M18.81 30.38C17.41 30.38 16.28 29.25 16.28 27.85C16.28 26.46 17.41 25.33 18.81 25.33C20.2 25.33 21.34 26.46 21.34 27.85C21.34 29.25 20.2 30.38 18.81 30.38ZM14.88 27.85C14.88 30.03 16.64 31.79 18.81 31.79C20.98 31.79 22.74 30.03 22.74 27.85C22.74 25.68 20.98 23.92 18.81 23.92C16.64 23.92 14.88 25.68 14.88 27.85Z" fill="url(#paint_linear_84_3560_0)" fill-opacity="1.000000" fill-rule="evenodd"/>
		<path id="path4069 (Stroke)" d="M29.18 30.38C27.79 30.38 26.65 29.25 26.65 27.85C26.65 26.46 27.79 25.33 29.18 25.33C30.58 25.33 31.71 26.46 31.71 27.85C31.71 29.25 30.58 30.38 29.18 30.38ZM25.25 27.85C25.25 30.03 27.01 31.79 29.18 31.79C31.35 31.79 33.11 30.03 33.11 27.85C33.11 25.68 31.35 23.92 29.18 23.92C27.01 23.92 25.25 25.68 25.25 27.85Z" fill="url(#paint_linear_84_3562_0)" fill-opacity="1.000000" fill-rule="evenodd"/>
		<path id="path4073 (Stroke)" d="M10.26 26.76L10.3 26.76C11.83 26.76 13.07 25.54 13.11 24.02L13.11 24.02C13.11 23.98 13.11 23.93 13.11 23.89C13.16 23.88 13.2 23.88 13.25 23.88L13.25 23.88C14.77 23.84 15.99 22.6 15.99 21.07L15.99 21.03C15.99 19.5 14.77 18.26 13.25 18.22L13.25 18.22C13.2 18.22 13.16 18.22 13.11 18.22C13.11 18.17 13.11 18.13 13.11 18.08L13.11 18.08C13.07 16.56 11.83 15.34 10.3 15.34L10.26 15.34C8.73 15.34 7.49 16.56 7.45 18.08L7.45 18.08C7.44 18.13 7.44 18.17 7.44 18.22C7.4 18.22 7.35 18.22 7.31 18.22L7.31 18.22C5.79 18.26 4.57 19.5 4.57 21.03L4.57 21.07C4.57 22.6 5.79 23.84 7.31 23.88L7.31 23.88C7.35 23.88 7.4 23.88 7.44 23.89C7.44 23.93 7.44 23.98 7.45 24.02L7.45 24.02C7.49 25.54 8.73 26.76 10.26 26.76ZM10.3 25.36L10.26 25.36C10.26 25.36 10.26 25.36 10.26 25.36C10.26 25.36 10.26 25.36 10.26 25.36C9.5 25.36 8.87 24.75 8.85 23.98L10.3 25.36ZM10.3 25.36C10.3 25.36 10.3 25.36 10.3 25.36C10.3 25.36 10.3 25.36 10.3 25.36L10.3 25.36ZM10.3 25.36C11.06 25.36 11.68 24.75 11.7 23.98L10.3 25.36ZM8.85 23.98C8.84 23.72 8.84 23.45 8.83 23.18C8.83 22.81 8.52 22.5 8.14 22.5C7.88 22.49 7.61 22.48 7.35 22.48L8.85 23.98ZM11.7 23.98C11.71 23.72 11.72 23.45 11.72 23.18L11.7 23.98ZM13.21 22.48C12.94 22.48 12.68 22.49 12.41 22.5C12.03 22.5 11.73 22.81 11.72 23.18L13.21 22.48ZM13.21 22.48C13.98 22.46 14.58 21.83 14.58 21.07C14.58 21.07 14.58 21.07 14.58 21.07L14.58 21.03L13.21 22.48ZM5.97 21.07C5.97 21.07 5.97 21.07 5.97 21.07L5.97 21.03C5.97 21.03 5.97 21.03 5.97 21.03C5.97 21.03 5.97 21.03 5.97 21.03C5.97 20.27 6.58 19.65 7.35 19.62C7.61 19.62 7.88 19.61 8.14 19.61C8.52 19.6 8.83 19.29 8.83 18.92C8.84 18.65 8.84 18.38 8.85 18.12L5.97 21.07ZM5.97 21.07C5.97 21.07 5.97 21.07 5.97 21.07ZM5.97 21.07C5.97 21.83 6.58 22.46 7.35 22.48L5.97 21.07ZM14.58 21.03C14.58 20.27 13.98 19.65 13.21 19.62L14.58 21.03ZM13.21 19.62C12.94 19.62 12.68 19.61 12.41 19.61C12.03 19.6 11.73 19.29 11.72 18.92C11.72 18.65 11.71 18.38 11.7 18.12L13.21 19.62ZM8.85 18.12C8.87 17.35 9.5 16.75 10.26 16.75L10.3 16.75C11.06 16.75 11.68 17.35 11.7 18.12L8.85 18.12Z" fill="url(#paint_linear_84_3564_0)" fill-opacity="1.000000" fill-rule="evenodd"/>
		<path id="path4077 (Stroke)" d="M40.45 19.85C39.94 20.37 39.11 20.37 38.6 19.85C38.09 19.34 38.09 18.52 38.6 18.01C39.11 17.5 39.94 17.5 40.45 18.01C40.96 18.52 40.96 19.34 40.45 19.85ZM37.61 20.85C38.67 21.91 40.39 21.91 41.45 20.85C42.51 19.79 42.51 18.07 41.45 17.01C40.39 15.95 38.67 15.95 37.61 17.01C36.55 18.07 36.55 19.79 37.61 20.85Z" fill="url(#paint_linear_84_3566_0)" fill-opacity="1.000000" fill-rule="evenodd"/>
		<path id="path4081 (Stroke)" d="M36.21 24.09C35.7 24.61 34.87 24.61 34.36 24.09C33.85 23.58 33.85 22.76 34.36 22.25C34.87 21.74 35.7 21.74 36.21 22.25C36.72 22.76 36.72 23.58 36.21 24.09ZM33.37 25.09C34.43 26.15 36.15 26.15 37.21 25.09C38.27 24.03 38.27 22.31 37.21 21.25C36.15 20.19 34.43 20.19 33.37 21.25C32.31 22.31 32.31 24.03 33.37 25.09Z" fill="url(#paint_linear_84_3568_0)" fill-opacity="1.000000" fill-rule="evenodd"/>
		<path id="path4085 (Stroke)" d="M20.02 19.75C20.02 20.86 20.92 21.75 22.02 21.75L26.19 21.75C27.29 21.75 28.19 20.86 28.19 19.75C28.19 18.65 27.29 17.75 26.19 17.75L22.02 17.75C20.92 17.75 20.02 18.65 20.02 19.75ZM22.02 20.35C21.7 20.35 21.43 20.08 21.43 19.75C21.43 19.42 21.7 19.16 22.02 19.16L26.19 19.16C26.51 19.16 26.78 19.42 26.78 19.75C26.78 20.08 26.51 20.35 26.19 20.35L22.02 20.35Z" fill="url(#paint_linear_84_3570_0)" fill-opacity="1.000000" fill-rule="evenodd"/>
		<path id="path4089 (Stroke)" d="M16.44 14.43C16.62 14.09 16.49 13.66 16.15 13.48C15.44 13.1 14.93 12.37 14.85 11.52C14.8 10.97 14.78 10.42 14.77 9.87C14.77 9.49 14.46 9.17 14.07 9.17C13.68 9.18 13.37 9.49 13.37 9.88C13.37 10.47 13.4 11.05 13.45 11.64L13.45 11.64C13.57 12.98 14.37 14.12 15.49 14.72C15.83 14.9 16.26 14.77 16.44 14.43Z" fill="url(#paint_linear_84_3572_0)" fill-opacity="1.000000" fill-rule="evenodd"/>
		<path id="path4093 (Stroke)" d="M30.78 13.76C26.73 13.92 22.67 13.94 18.61 13.81C18.22 13.8 17.89 14.1 17.88 14.49C17.87 14.88 18.17 15.2 18.56 15.22C22.65 15.34 26.75 15.33 30.84 15.17L30.78 13.76ZM33.14 11.52C33.03 12.75 32.02 13.71 30.78 13.76L30.78 13.76L33.14 11.52ZM33.14 11.52C33.19 10.97 33.21 10.42 33.22 9.87C33.22 9.49 33.53 9.17 33.92 9.17C34.31 9.18 34.62 9.49 34.62 9.88C34.62 10.47 34.59 11.06 34.54 11.64L34.54 11.64C34.36 13.58 32.79 15.09 30.84 15.17L33.14 11.52Z" fill="url(#paint_linear_84_3574_0)" fill-opacity="1.000000" fill-rule="evenodd"/>
	</g>
</svg>
