<svg width="48.000000" height="48.000000" viewBox="0 0 48 48" fill="none" xmlns="http://www.w3.org/2000/svg" xmlns:xlink="http://www.w3.org/1999/xlink">
	<desc>
			Created with Pixso.
	</desc>
	<defs>
		<clipPath id="clip84_3616">
			<rect id="theatre" rx="0.000000" width="47.000000" height="47.000000" transform="translate(0.500000 0.500000)" fill="white" fill-opacity="0"/>
		</clipPath>
		<linearGradient x1="0.751526" y1="16.961664" x2="32.568882" y2="16.961664" id="paint_linear_84_3624_0" gradientUnits="userSpaceOnUse">
			<stop stop-color="#0CBAF1"/>
			<stop offset="1.000000" stop-color="#E95CE9"/>
		</linearGradient>
		<linearGradient x1="7.647949" y1="22.490280" x2="20.614838" y2="22.490280" id="paint_linear_84_3626_0" gradientUnits="userSpaceOnUse">
			<stop stop-color="#0CBAF1"/>
			<stop offset="1.000000" stop-color="#E95CE9"/>
		</linearGradient>
		<linearGradient x1="7.726013" y1="13.538160" x2="14.233698" y2="13.538160" id="paint_linear_84_3628_0" gradientUnits="userSpaceOnUse">
			<stop stop-color="#0CBAF1"/>
			<stop offset="1.000000" stop-color="#E95CE9"/>
		</linearGradient>
		<linearGradient x1="17.928345" y1="17.252026" x2="24.436029" y2="17.252026" id="paint_linear_84_3630_0" gradientUnits="userSpaceOnUse">
			<stop stop-color="#0CBAF1"/>
			<stop offset="1.000000" stop-color="#E95CE9"/>
		</linearGradient>
		<linearGradient x1="8.016602" y1="9.951075" x2="15.858305" y2="9.951075" id="paint_linear_84_3632_0" gradientUnits="userSpaceOnUse">
			<stop stop-color="#0CBAF1"/>
			<stop offset="1.000000" stop-color="#E95CE9"/>
		</linearGradient>
		<linearGradient x1="19.552795" y1="14.142517" x2="26.002029" y2="14.142517" id="paint_linear_84_3634_0" gradientUnits="userSpaceOnUse">
			<stop stop-color="#0CBAF1"/>
			<stop offset="1.000000" stop-color="#E95CE9"/>
		</linearGradient>
		<linearGradient x1="18.383911" y1="31.037792" x2="47.248474" y2="31.037792" id="paint_linear_84_3636_0" gradientUnits="userSpaceOnUse">
			<stop stop-color="#0CBAF1"/>
			<stop offset="1.000000" stop-color="#E95CE9"/>
		</linearGradient>
		<linearGradient x1="28.591858" y1="36.966843" x2="41.558746" y2="36.966843" id="paint_linear_84_3638_0" gradientUnits="userSpaceOnUse">
			<stop stop-color="#0CBAF1"/>
			<stop offset="1.000000" stop-color="#E95CE9"/>
		</linearGradient>
		<linearGradient x1="23.525818" y1="30.420902" x2="29.375786" y2="30.420902" id="paint_linear_84_3640_0" gradientUnits="userSpaceOnUse">
			<stop stop-color="#0CBAF1"/>
			<stop offset="1.000000" stop-color="#E95CE9"/>
		</linearGradient>
		<linearGradient x1="33.070251" y1="27.243387" x2="39.885090" y2="27.243387" id="paint_linear_84_3642_0" gradientUnits="userSpaceOnUse">
			<stop stop-color="#0CBAF1"/>
			<stop offset="1.000000" stop-color="#E95CE9"/>
		</linearGradient>
		<linearGradient x1="32.141724" y1="24.027246" x2="39.983425" y2="24.027246" id="paint_linear_84_3644_0" gradientUnits="userSpaceOnUse">
			<stop stop-color="#0CBAF1"/>
			<stop offset="1.000000" stop-color="#E95CE9"/>
		</linearGradient>
	</defs>
	<rect id="theatre" rx="0.000000" width="47.000000" height="47.000000" transform="translate(0.500000 0.500000)" fill="#FFFFFF" fill-opacity="0"/>
	<g clip-path="url(#clip84_3616)">
		<mask id="mask84_3620" mask-type="alpha" maskUnits="userSpaceOnUse" x="0.000000" y="0.000000" width="48.000000" height="48.000000">
			<path id="path3981" d="M0 0L48 0L48 48L0 48L0 0Z" fill="#000000" fill-opacity="1.000000" fill-rule="nonzero"/>
		</mask>
		<g mask="url(#mask84_3620)">
			<path id="path3987 (Stroke)" d="M13.18 32.26C11.08 32.97 8.78 32.13 7.63 30.24L7.04 30.6L7.63 30.24L3.73 23.84C2.02 21.03 1.68 17.6 2.81 14.51L6.77 3.62L6.11 3.38L6.77 3.62C7.41 1.87 9.34 0.97 11.09 1.61L28.94 8.1L29.18 7.44L28.94 8.1C30.69 8.74 31.59 10.67 30.95 12.42L26.99 23.31C25.86 26.4 23.39 28.81 20.28 29.87L13.18 32.26L13.18 32.26ZM13.63 33.6C10.91 34.51 7.92 33.42 6.43 30.98L2.53 24.58L3.13 24.21L2.53 24.58C0.6 21.4 0.21 17.52 1.48 14.02L5.45 3.14C6.35 0.66 9.09 -0.62 11.57 0.28L29.42 6.78C31.9 7.68 33.18 10.42 32.27 12.9L28.31 23.79C27.04 27.28 24.25 30.01 20.73 31.2L20.52 30.58L20.73 31.2L13.63 33.6C13.63 33.6 13.63 33.6 13.63 33.6Z" fill="url(#paint_linear_84_3624_0)" fill-opacity="1.000000" fill-rule="evenodd"/>
			<path id="path3991 (Stroke)" d="M18.55 23.65C17.13 25.31 14.78 26 12.6 25.21L12.36 25.87L12.6 25.21C10.43 24.42 9.07 22.38 9.05 20.19C10.27 21.21 11.79 22.08 13.51 22.71L13.51 22.71C15.24 23.34 16.96 23.64 18.55 23.65ZM12.12 26.54C15.41 27.73 19.01 26.24 20.54 23.19C20.65 22.96 20.63 22.68 20.48 22.47C20.33 22.26 20.08 22.15 19.82 22.18C18.12 22.38 16.07 22.14 14 21.39C11.92 20.63 10.2 19.5 9.02 18.25C8.85 18.06 8.58 17.98 8.33 18.05C8.08 18.11 7.89 18.31 7.83 18.56C7.04 21.88 8.84 25.34 12.12 26.54L12.12 26.54Z" fill="url(#paint_linear_84_3626_0)" fill-opacity="1.000000" fill-rule="evenodd"/>
			<path id="path3995 (Stroke)" d="M13.7 15.42C14.07 15.33 14.3 14.95 14.21 14.57C13.91 13.38 12.98 12.35 11.68 11.88L13.7 15.42ZM13.7 15.42C13.32 15.52 12.94 15.29 12.84 14.91L13.7 15.42ZM12.84 14.91C12.67 14.21 12.09 13.52 11.2 13.2L12.84 14.91ZM7.85 13.3C8.08 13.61 8.52 13.68 8.84 13.46C9.42 13.03 10.31 12.88 11.2 13.2L11.2 13.2L7.85 13.3ZM7.85 13.3C7.63 12.98 7.7 12.54 8.01 12.32L7.85 13.3ZM8.01 12.32C9 11.6 10.38 11.41 11.68 11.88L8.01 12.32Z" fill="url(#paint_linear_84_3628_0)" fill-opacity="1.000000" fill-rule="evenodd"/>
			<path id="path3999 (Stroke)" d="M23.9 19.14C24.28 19.04 24.5 18.66 24.41 18.29C24.11 17.1 23.18 16.06 21.88 15.59L23.9 19.14ZM23.9 19.14C23.52 19.23 23.14 19 23.05 18.63L23.9 19.14ZM23.05 18.63C22.87 17.92 22.29 17.24 21.4 16.91L23.05 18.63ZM18.06 17.01C18.29 17.33 18.72 17.4 19.04 17.17C19.63 16.74 20.51 16.59 21.4 16.91L21.4 16.91L18.06 17.01ZM18.06 17.01C17.83 16.7 17.9 16.26 18.21 16.03L18.06 17.01ZM18.21 16.03C19.2 15.31 20.58 15.12 21.88 15.59L18.21 16.03Z" fill="url(#paint_linear_84_3630_0)" fill-opacity="1.000000" fill-rule="evenodd"/>
			<path id="path4003 (Stroke)" d="M15.81 10.52C15.94 10.16 15.76 9.75 15.39 9.62C13.36 8.88 11.64 8.83 10.42 8.97C9.81 9.04 9.32 9.16 8.98 9.26C8.81 9.31 8.67 9.36 8.58 9.4C8.53 9.42 8.5 9.43 8.47 9.44C8.46 9.45 8.44 9.45 8.44 9.46C8.43 9.46 8.43 9.46 8.42 9.46L8.42 9.47L8.42 9.47L8.42 9.47C8.42 9.47 8.42 9.47 8.71 10.1L8.42 9.47C8.07 9.63 7.91 10.05 8.08 10.4C8.24 10.75 8.66 10.91 9.01 10.74C9.01 10.74 9.01 10.74 9.01 10.74C9.01 10.74 9.02 10.74 9.02 10.74C9.03 10.73 9.06 10.72 9.09 10.71C9.15 10.69 9.25 10.65 9.39 10.61C9.66 10.53 10.06 10.43 10.58 10.37C11.61 10.25 13.11 10.29 14.91 10.94C15.27 11.07 15.68 10.89 15.81 10.52ZM9.01 10.74C9.01 10.74 9.01 10.74 9.01 10.74C9.01 10.74 9.01 10.74 9.01 10.74L9.01 10.74Z" fill="url(#paint_linear_84_3632_0)" fill-opacity="1.000000" fill-rule="evenodd"/>
			<path id="path4007 (Stroke)" d="M25.59 16.78C25.94 16.61 26.1 16.19 25.93 15.84L25.29 16.14C25.93 15.84 25.93 15.84 25.93 15.84L25.93 15.84L25.93 15.84L25.93 15.83C25.93 15.83 25.92 15.83 25.92 15.82C25.92 15.82 25.91 15.8 25.91 15.79C25.89 15.76 25.87 15.73 25.85 15.68C25.8 15.6 25.73 15.47 25.63 15.33C25.44 15.03 25.14 14.62 24.72 14.18C23.87 13.28 22.52 12.21 20.49 11.48C20.13 11.34 19.72 11.53 19.59 11.9C19.46 12.26 19.65 12.66 20.01 12.8C21.81 13.45 22.98 14.39 23.7 15.14C24.06 15.52 24.3 15.86 24.46 16.09C24.53 16.21 24.59 16.3 24.62 16.36C24.63 16.39 24.65 16.41 24.65 16.43C24.66 16.43 24.66 16.44 24.66 16.44C24.66 16.44 24.66 16.44 24.66 16.44C24.82 16.79 25.24 16.94 25.59 16.78Z" fill="url(#paint_linear_84_3634_0)" fill-opacity="1.000000" fill-rule="evenodd"/>
			<path id="path4011 (Stroke)" d="M40.36 44.32C39.21 46.21 36.91 47.05 34.81 46.34L27.71 43.94C27.71 43.94 27.71 43.94 27.71 43.94C24.6 42.89 22.13 40.48 21 37.38C21 37.38 21 37.38 21 37.38L19.74 33.93C19.61 33.57 19.21 33.38 18.84 33.51C18.48 33.64 18.29 34.05 18.42 34.41L19.68 37.87L19.68 37.87C20.95 41.36 23.74 44.08 27.26 45.27L27.26 45.27L34.36 47.67C37.08 48.59 40.07 47.5 41.56 45.05L45.46 38.65L44.86 38.29L45.46 38.65C47.39 35.48 47.78 31.59 46.51 28.1L42.54 17.21C41.64 14.74 38.9 13.46 36.42 14.36L36.42 14.36L33.27 15.51C32.91 15.64 32.72 16.04 32.85 16.41C32.99 16.77 33.39 16.96 33.75 16.83L36.9 15.68C38.65 15.04 40.59 15.95 41.22 17.69L45.18 28.58C46.31 31.67 45.97 35.11 44.26 37.92L40.36 44.32L40.96 44.69L40.36 44.32Z" fill="url(#paint_linear_84_3636_0)" fill-opacity="1.000000" fill-rule="evenodd"/>
			<path id="path4015 (Stroke)" d="M29.28 41.4C29.52 41.47 29.79 41.39 29.97 41.2C31.15 39.95 32.86 38.82 34.94 38.06L34.7 37.4L34.94 38.06C37.02 37.3 39.06 37.07 40.77 37.27C41.02 37.3 41.28 37.19 41.43 36.98C41.57 36.77 41.6 36.49 41.48 36.26C39.95 33.21 36.35 31.72 33.07 32.91L33.07 32.91C29.78 34.11 27.98 37.57 28.77 40.88C28.83 41.13 29.03 41.33 29.28 41.4ZM29.99 39.26C30.02 37.07 31.37 35.03 33.55 34.23L33.31 33.57L33.55 34.23C35.72 33.44 38.07 34.14 39.5 35.8C37.91 35.8 36.18 36.11 34.46 36.74L34.46 36.74C32.74 37.37 31.22 38.24 29.99 39.26ZM33.31 33.57L33.31 33.57L33.31 33.57Z" fill="url(#paint_linear_84_3638_0)" fill-opacity="1.000000" fill-rule="evenodd"/>
			<path id="path4019 (Stroke)" d="M26.82 30.86C26.05 31.4 25.15 31.48 24.47 31.22C24.11 31.09 23.71 31.27 23.57 31.63C23.43 31.99 23.61 32.4 23.97 32.54C25.12 32.97 26.5 32.8 27.63 32.01L27.63 32.01C28.76 31.21 29.39 29.97 29.37 28.75C29.36 28.36 29.04 28.05 28.65 28.06C28.27 28.07 27.96 28.39 27.96 28.78C27.98 29.5 27.6 30.31 26.82 30.86L26.82 30.86Z" fill="url(#paint_linear_84_3640_0)" fill-opacity="1.000000" fill-rule="evenodd"/>
			<path id="path4023 (Stroke)" d="M33.22 27.35C33.99 28.3 35.27 28.84 36.65 28.72C38.03 28.61 39.2 27.85 39.79 26.78C39.98 26.44 39.86 26.01 39.52 25.83C39.18 25.64 38.75 25.76 38.56 26.1C38.21 26.73 37.47 27.24 36.53 27.32L36.53 27.32C35.59 27.41 34.77 27.03 34.32 26.46C34.07 26.16 33.63 26.12 33.33 26.36C33.02 26.6 32.98 27.05 33.22 27.35Z" fill="url(#paint_linear_84_3642_0)" fill-opacity="1.000000" fill-rule="evenodd"/>
			<path id="path4027 (Stroke)" d="M32.18 24.6C32.31 24.96 32.72 25.15 33.08 25.02C34.88 24.36 36.38 24.33 37.41 24.44C37.93 24.5 38.33 24.6 38.6 24.68C38.74 24.73 38.84 24.76 38.9 24.79C38.93 24.8 38.96 24.81 38.97 24.81C38.97 24.82 38.98 24.82 38.98 24.82L38.98 24.82L38.98 24.82L38.98 24.82C38.98 24.82 38.98 24.82 39.26 24.21L38.98 24.82C38.98 24.82 38.98 24.82 38.98 24.82C38.98 24.82 38.98 24.82 38.98 24.82L38.98 24.82C38.98 24.82 38.98 24.82 38.98 24.82C39.33 24.98 39.75 24.83 39.91 24.48C40.08 24.13 39.92 23.71 39.57 23.54L39.28 24.18C39.57 23.54 39.57 23.54 39.57 23.54L39.57 23.54L39.57 23.54L39.57 23.54C39.56 23.54 39.56 23.54 39.55 23.54C39.55 23.53 39.54 23.53 39.52 23.52C39.49 23.51 39.46 23.49 39.41 23.48C39.32 23.44 39.18 23.39 39.01 23.34C38.67 23.24 38.18 23.12 37.57 23.05C36.35 22.91 34.63 22.96 32.6 23.7C32.23 23.83 32.05 24.23 32.18 24.6Z" fill="url(#paint_linear_84_3644_0)" fill-opacity="1.000000" fill-rule="evenodd"/>
		</g>
	</g>
</svg>
