<svg width="46.000000" height="46.000000" viewBox="0 0 46 46" fill="none" xmlns="http://www.w3.org/2000/svg" xmlns:xlink="http://www.w3.org/1999/xlink">
	<desc>
			Created with Pixso.
	</desc>
	<defs>
		<linearGradient x1="0.000000" y1="22.999996" x2="45.999992" y2="22.999996" id="paint_linear_52_1553_0" gradientUnits="userSpaceOnUse">
			<stop stop-color="#0CBAF1"/>
			<stop offset="1.000000" stop-color="#E95CE9"/>
		</linearGradient>
	</defs>
	<circle id="BG" cx="23.000000" cy="23.000000" r="22.999996" fill="#18181B" fill-opacity="1.000000"/>
	<circle id="BG" cx="23.000000" cy="23.000000" r="22.499996" stroke="url(#paint_linear_52_1553_0)" stroke-opacity="1.000000" stroke-width="1.000000"/>
	<path id="Vector" d="M33.2 18.04C32.51 18.34 31.78 18.54 31.02 18.65C31.78 18.19 32.39 17.46 32.66 16.58C31.93 17 31.13 17.31 30.25 17.5C29.56 16.78 28.57 16.32 27.5 16.32C25.43 16.32 23.75 18 23.75 20.07C23.75 20.37 23.79 20.64 23.86 20.91C20.77 20.75 17.97 19.26 16.1 16.97C15.79 17.54 15.6 18.15 15.6 18.84C15.6 20.14 16.25 21.29 17.29 21.98C16.67 21.94 16.1 21.79 15.57 21.52L15.57 21.56C15.57 23.39 16.87 24.92 18.59 25.27C18.28 25.34 17.94 25.38 17.59 25.38C17.36 25.38 17.1 25.34 16.87 25.31C17.36 26.8 18.74 27.91 20.38 27.91C19.08 28.9 17.48 29.51 15.72 29.51C15.41 29.51 15.11 29.51 14.84 29.47C16.52 30.54 18.47 31.16 20.61 31.16C27.54 31.16 31.32 25.42 31.32 20.45C31.32 20.29 31.32 20.1 31.32 19.95C32.05 19.45 32.7 18.8 33.2 18.04Z" fill="#FFFFFF" fill-opacity="1.000000" fill-rule="nonzero"/>
</svg>
