<svg width="48.000000" height="48.000000" viewBox="0 0 48 48" fill="none" xmlns="http://www.w3.org/2000/svg" xmlns:xlink="http://www.w3.org/1999/xlink">
	<desc>
			Created with Pixso.
	</desc>
	<defs>
		<clipPath id="clip84_3575">
			<rect id="party" rx="0.000000" width="47.000000" height="47.000000" transform="translate(0.500000 0.500000)" fill="white" fill-opacity="0"/>
		</clipPath>
		<linearGradient x1="7.349854" y1="4.947391" x2="13.850290" y2="4.947391" id="paint_linear_84_3583_0" gradientUnits="userSpaceOnUse">
			<stop stop-color="#0CBAF1"/>
			<stop offset="1.000000" stop-color="#E95CE9"/>
		</linearGradient>
		<linearGradient x1="16.504517" y1="4.947391" x2="23.005047" y2="4.947391" id="paint_linear_84_3585_0" gradientUnits="userSpaceOnUse">
			<stop stop-color="#0CBAF1"/>
			<stop offset="1.000000" stop-color="#E95CE9"/>
		</linearGradient>
		<linearGradient x1="25.659302" y1="4.947391" x2="32.159832" y2="4.947391" id="paint_linear_84_3587_0" gradientUnits="userSpaceOnUse">
			<stop stop-color="#0CBAF1"/>
			<stop offset="1.000000" stop-color="#E95CE9"/>
		</linearGradient>
		<linearGradient x1="34.814087" y1="4.947391" x2="41.314617" y2="4.947391" id="paint_linear_84_3589_0" gradientUnits="userSpaceOnUse">
			<stop stop-color="#0CBAF1"/>
			<stop offset="1.000000" stop-color="#E95CE9"/>
		</linearGradient>
		<linearGradient x1="13.910889" y1="30.907873" x2="32.143906" y2="30.907873" id="paint_linear_84_3591_0" gradientUnits="userSpaceOnUse">
			<stop stop-color="#0CBAF1"/>
			<stop offset="1.000000" stop-color="#E95CE9"/>
		</linearGradient>
		<linearGradient x1="26.344971" y1="23.549225" x2="30.371490" y2="23.549225" id="paint_linear_84_3593_0" gradientUnits="userSpaceOnUse">
			<stop stop-color="#0CBAF1"/>
			<stop offset="1.000000" stop-color="#E95CE9"/>
		</linearGradient>
		<linearGradient x1="21.314453" y1="24.206610" x2="25.529701" y2="24.206610" id="paint_linear_84_3595_0" gradientUnits="userSpaceOnUse">
			<stop stop-color="#0CBAF1"/>
			<stop offset="1.000000" stop-color="#E95CE9"/>
		</linearGradient>
		<linearGradient x1="26.472412" y1="28.511148" x2="31.104849" y2="28.511148" id="paint_linear_84_3597_0" gradientUnits="userSpaceOnUse">
			<stop stop-color="#0CBAF1"/>
			<stop offset="1.000000" stop-color="#E95CE9"/>
		</linearGradient>
		<linearGradient x1="29.717163" y1="30.980074" x2="37.259422" y2="30.980074" id="paint_linear_84_3599_0" gradientUnits="userSpaceOnUse">
			<stop stop-color="#0CBAF1"/>
			<stop offset="1.000000" stop-color="#E95CE9"/>
		</linearGradient>
		<linearGradient x1="19.044922" y1="21.572718" x2="21.222839" y2="21.572718" id="paint_linear_84_3601_0" gradientUnits="userSpaceOnUse">
			<stop stop-color="#0CBAF1"/>
			<stop offset="1.000000" stop-color="#E95CE9"/>
		</linearGradient>
		<linearGradient x1="9.088745" y1="36.247356" x2="30.849728" y2="36.247356" id="paint_linear_84_3603_0" gradientUnits="userSpaceOnUse">
			<stop stop-color="#0CBAF1"/>
			<stop offset="1.000000" stop-color="#E95CE9"/>
		</linearGradient>
		<linearGradient x1="13.371460" y1="36.361664" x2="22.500134" y2="36.361664" id="paint_linear_84_3605_0" gradientUnits="userSpaceOnUse">
			<stop stop-color="#0CBAF1"/>
			<stop offset="1.000000" stop-color="#E95CE9"/>
		</linearGradient>
		<linearGradient x1="11.782227" y1="40.252068" x2="18.327902" y2="40.252068" id="paint_linear_84_3607_0" gradientUnits="userSpaceOnUse">
			<stop stop-color="#0CBAF1"/>
			<stop offset="1.000000" stop-color="#E95CE9"/>
		</linearGradient>
		<linearGradient x1="10.658203" y1="43.001202" x2="15.378285" y2="43.001202" id="paint_linear_84_3609_0" gradientUnits="userSpaceOnUse">
			<stop stop-color="#0CBAF1"/>
			<stop offset="1.000000" stop-color="#E95CE9"/>
		</linearGradient>
		<linearGradient x1="14.495483" y1="33.610195" x2="25.449848" y2="33.610195" id="paint_linear_84_3611_0" gradientUnits="userSpaceOnUse">
			<stop stop-color="#0CBAF1"/>
			<stop offset="1.000000" stop-color="#E95CE9"/>
		</linearGradient>
		<linearGradient x1="2.412231" y1="23.221870" x2="45.587761" y2="23.221870" id="paint_linear_84_3613_0" gradientUnits="userSpaceOnUse">
			<stop stop-color="#0CBAF1"/>
			<stop offset="1.000000" stop-color="#E95CE9"/>
		</linearGradient>
		<linearGradient x1="2.412354" y1="14.189575" x2="45.587883" y2="14.189575" id="paint_linear_84_3615_0" gradientUnits="userSpaceOnUse">
			<stop stop-color="#0CBAF1"/>
			<stop offset="1.000000" stop-color="#E95CE9"/>
		</linearGradient>
	</defs>
	<rect id="party" rx="0.000000" width="47.000000" height="47.000000" transform="translate(0.500000 0.500000)" fill="#FFFFFF" fill-opacity="0"/>
	<g clip-path="url(#clip84_3575)">
		<mask id="mask84_3579" mask-type="alpha" maskUnits="userSpaceOnUse" x="0.000000" y="0.000000" width="48.000000" height="48.000000">
			<path id="path3726" d="M0 0L48 0L48 48L0 48L0 0Z" fill="#000000" fill-opacity="1.000000" fill-rule="nonzero"/>
		</mask>
		<g mask="url(#mask84_3579)">
			<path id="path3732 (Stroke)" d="M7.34 6.64C7.34 8.43 8.8 9.89 10.59 9.89C10.98 9.89 11.3 9.58 11.3 9.19C11.3 8.8 10.98 8.48 10.59 8.48C9.58 8.48 8.75 7.65 8.75 6.64L8.75 3.24C8.75 2.23 9.58 1.4 10.59 1.4C11.61 1.4 12.44 2.23 12.44 3.24L12.44 4.94C12.44 5.33 12.75 5.65 13.14 5.65C13.53 5.65 13.85 5.33 13.85 4.94L13.85 3.24C13.85 1.45 12.38 0 10.59 0C8.8 0 7.34 1.46 7.34 3.24L7.34 6.64Z" fill="url(#paint_linear_84_3583_0)" fill-opacity="1.000000" fill-rule="evenodd"/>
			<path id="path3736 (Stroke)" d="M16.5 6.64C16.5 8.43 17.96 9.89 19.75 9.89C20.14 9.89 20.45 9.58 20.45 9.19C20.45 8.8 20.14 8.48 19.75 8.48C18.74 8.48 17.91 7.65 17.91 6.64L17.91 3.24C17.91 2.23 18.74 1.4 19.75 1.4C20.76 1.4 21.59 2.23 21.59 3.24L21.59 4.94C21.59 5.33 21.91 5.65 22.3 5.65C22.69 5.65 23 5.33 23 4.94L23 3.24C23 1.45 21.54 0 19.75 0C17.96 0 16.5 1.46 16.5 3.24L16.5 6.64Z" fill="url(#paint_linear_84_3585_0)" fill-opacity="1.000000" fill-rule="evenodd"/>
			<path id="path3740 (Stroke)" d="M25.65 6.64C25.65 8.43 27.11 9.89 28.9 9.89C29.29 9.89 29.61 9.58 29.61 9.19C29.61 8.8 29.29 8.48 28.9 8.48C27.89 8.48 27.06 7.65 27.06 6.64L27.06 3.24C27.06 2.23 27.89 1.4 28.9 1.4C29.92 1.4 30.75 2.23 30.75 3.24L30.75 4.94C30.75 5.33 31.06 5.65 31.45 5.65C31.84 5.65 32.15 5.33 32.15 4.94L32.15 3.24C32.15 1.45 30.69 0 28.9 0C27.11 0 25.65 1.46 25.65 3.24L25.65 6.64Z" fill="url(#paint_linear_84_3587_0)" fill-opacity="1.000000" fill-rule="evenodd"/>
			<path id="path3744 (Stroke)" d="M34.81 6.64C34.81 8.43 36.27 9.89 38.06 9.89C38.45 9.89 38.76 9.58 38.76 9.19C38.76 8.8 38.45 8.48 38.06 8.48C37.05 8.48 36.22 7.65 36.22 6.64L36.22 3.24C36.22 2.23 37.05 1.4 38.06 1.4C39.07 1.4 39.9 2.23 39.9 3.24L39.9 4.94C39.9 5.33 40.22 5.65 40.61 5.65C40.99 5.65 41.31 5.33 41.31 4.94L41.31 3.24C41.31 1.46 39.85 0 38.06 0C36.27 0 34.81 1.45 34.81 3.24L34.81 6.64Z" fill="url(#paint_linear_84_3589_0)" fill-opacity="1.000000" fill-rule="evenodd"/>
			<path id="path3748 (Stroke)" d="M31.98 38.09C32.23 37.79 32.18 37.34 31.88 37.1L15.05 23.61C14.75 23.36 14.3 23.41 14.06 23.72C13.82 24.02 13.87 24.46 14.17 24.7L31 38.2C31.3 38.44 31.74 38.39 31.98 38.09Z" fill="url(#paint_linear_84_3591_0)" fill-opacity="1.000000" fill-rule="evenodd"/>
			<path id="path3752 (Stroke)" d="M26.6 25.73C26.91 25.97 27.35 25.92 27.59 25.62L30.21 22.35C30.45 22.05 30.41 21.6 30.1 21.36C29.8 21.12 29.36 21.17 29.11 21.47L26.49 24.74C26.25 25.04 26.3 25.48 26.6 25.73Z" fill="url(#paint_linear_84_3593_0)" fill-opacity="1.000000" fill-rule="evenodd"/>
			<path id="path3756 (Stroke)" d="M21.55 26.7C21.84 26.95 22.29 26.92 22.54 26.63C23.47 25.57 24.59 24.2 25.44 22.56C25.62 22.22 25.49 21.79 25.15 21.61C24.8 21.43 24.38 21.57 24.2 21.91C23.42 23.4 22.39 24.66 21.48 25.7C21.23 26 21.26 26.44 21.55 26.7Z" fill="url(#paint_linear_84_3595_0)" fill-opacity="1.000000" fill-rule="evenodd"/>
			<path id="path3760 (Stroke)" d="M26.75 30.87C27.07 31.1 27.51 31.03 27.74 30.72C28.56 29.61 29.57 28.33 30.85 27.25C31.15 27 31.18 26.55 30.94 26.26C30.69 25.96 30.24 25.92 29.94 26.17C28.53 27.36 27.44 28.75 26.6 29.89C26.37 30.2 26.44 30.64 26.75 30.87Z" fill="url(#paint_linear_84_3597_0)" fill-opacity="1.000000" fill-rule="evenodd"/>
			<path id="path3764 (Stroke)" d="M30.01 33.48C30.32 33.71 30.76 33.63 30.99 33.31C32.09 31.76 33.69 29.88 36.58 29.75C36.97 29.73 37.27 29.4 37.25 29.01C37.24 28.62 36.91 28.32 36.52 28.34C32.93 28.51 30.99 30.88 29.84 32.5C29.62 32.82 29.69 33.26 30.01 33.48Z" fill="url(#paint_linear_84_3599_0)" fill-opacity="1.000000" fill-rule="evenodd"/>
			<path id="path3768 (Stroke)" d="M19.38 23.75C19.72 23.95 20.15 23.84 20.35 23.5C20.78 22.78 21.37 21.61 21.18 19.91C21.14 19.52 20.79 19.25 20.4 19.29C20.02 19.33 19.74 19.68 19.78 20.07C19.93 21.33 19.5 22.18 19.14 22.79C18.94 23.12 19.05 23.55 19.38 23.75Z" fill="url(#paint_linear_84_3601_0)" fill-opacity="1.000000" fill-rule="evenodd"/>
			<path id="path3772 (Stroke)" d="M10.49 47.97C10.76 47.92 11.06 47.81 11.37 47.67C11.38 47.66 11.39 47.65 11.41 47.65L30.48 37.23C30.68 37.12 30.82 36.91 30.84 36.68C30.86 36.44 30.76 36.21 30.58 36.07L16.34 24.64C16.16 24.5 15.92 24.45 15.69 24.52C15.47 24.59 15.29 24.77 15.23 25L9.2 45.86C9.2 45.87 9.19 45.89 9.19 45.9C9.12 46.24 9.07 46.57 9.09 46.85C9.1 47.13 9.18 47.51 9.51 47.77C9.84 48.03 10.22 48.02 10.49 47.97ZM10.56 46.22L16.29 26.4L28.88 36.5L10.76 46.4C10.66 46.44 10.58 46.48 10.51 46.5C10.52 46.42 10.54 46.33 10.56 46.22Z" fill="url(#paint_linear_84_3603_0)" fill-opacity="1.000000" fill-rule="evenodd"/>
			<path id="path3776 (Stroke)" d="M22.23 41.72C22.53 41.48 22.58 41.04 22.34 40.74L14.62 31.1C14.38 30.8 13.93 30.75 13.63 30.99C13.33 31.23 13.28 31.68 13.52 31.98L21.24 41.61C21.49 41.92 21.93 41.97 22.23 41.72Z" fill="url(#paint_linear_84_3605_0)" fill-opacity="1.000000" fill-rule="evenodd"/>
			<path id="path3780 (Stroke)" d="M18.06 44C18.36 43.76 18.41 43.32 18.17 43.01L13.03 36.6C12.79 36.3 12.34 36.25 12.04 36.49C11.74 36.74 11.69 37.18 11.93 37.48L17.07 43.89C17.31 44.2 17.76 44.24 18.06 44Z" fill="url(#paint_linear_84_3607_0)" fill-opacity="1.000000" fill-rule="evenodd"/>
			<path id="path3784 (Stroke)" d="M15.11 45.61C15.41 45.37 15.46 44.93 15.22 44.62L11.9 40.49C11.66 40.19 11.22 40.14 10.92 40.38C10.61 40.62 10.56 41.07 10.81 41.37L14.12 45.5C14.36 45.81 14.81 45.85 15.11 45.61Z" fill="url(#paint_linear_84_3609_0)" fill-opacity="1.000000" fill-rule="evenodd"/>
			<path id="path3788 (Stroke)" d="M25.18 40.11C25.48 39.87 25.53 39.43 25.29 39.12L21.26 34.1C21.02 33.79 20.58 33.74 20.27 33.99C19.97 34.23 19.92 34.67 20.16 34.98L24.19 40C24.44 40.31 24.88 40.36 25.18 40.11ZM19.08 32.5C19.38 32.25 19.43 31.81 19.19 31.51L15.74 27.21C15.5 26.9 15.06 26.86 14.75 27.1C14.45 27.34 14.4 27.78 14.64 28.09L18.09 32.39C18.33 32.69 18.77 32.74 19.08 32.5Z" fill="url(#paint_linear_84_3611_0)" fill-opacity="1.000000" fill-rule="evenodd"/>
			<path id="path3792 (Stroke)" d="M2.41 41.07C2.41 41.69 2.91 42.19 3.54 42.19L11.2 42.19C11.59 42.19 11.9 41.88 11.9 41.49C11.9 41.1 11.59 40.79 11.2 40.79L3.81 40.79L3.81 5.65L44.18 5.65L44.18 40.79L21.21 40.79C20.82 40.79 20.51 41.1 20.51 41.49C20.51 41.88 20.82 42.19 21.21 42.19L44.45 42.19C45.08 42.19 45.58 41.69 45.58 41.07L45.58 5.37C45.58 4.75 45.08 4.24 44.45 4.24L3.54 4.24C2.91 4.24 2.41 4.75 2.41 5.37L2.41 41.07Z" fill="url(#paint_linear_84_3613_0)" fill-opacity="1.000000" fill-rule="evenodd"/>
			<path id="path3796 (Stroke)" d="M2.41 15.83C2.41 16.22 2.72 16.54 3.11 16.54L22.25 16.54C22.64 16.54 22.95 16.22 22.95 15.83C22.95 15.45 22.64 15.13 22.25 15.13L3.11 15.13C2.72 15.13 2.41 15.45 2.41 15.83ZM24.79 15.83C24.79 16.22 25.11 16.54 25.49 16.54L44.88 16.54C45.27 16.54 45.58 16.22 45.58 15.83C45.58 15.45 45.27 15.13 44.88 15.13L25.49 15.13C25.11 15.13 24.79 15.45 24.79 15.83ZM2.41 12.53C2.41 12.92 2.72 13.24 3.11 13.24L44.88 13.24C45.27 13.24 45.58 12.92 45.58 12.53C45.58 12.15 45.27 11.83 44.88 11.83L3.11 11.83C2.72 11.83 2.41 12.15 2.41 12.53Z" fill="url(#paint_linear_84_3615_0)" fill-opacity="1.000000" fill-rule="evenodd"/>
		</g>
	</g>
</svg>
