<svg width="48.000000" height="48.000000" viewBox="0 0 48 48" fill="none" xmlns="http://www.w3.org/2000/svg" xmlns:xlink="http://www.w3.org/1999/xlink">
	<desc>
			Created with Pixso.
	</desc>
	<defs>
		<clipPath id="clip84_3487">
			<rect id="design" rx="0.000000" width="47.000000" height="47.000000" transform="translate(0.500000 0.500000)" fill="white" fill-opacity="0"/>
		</clipPath>
		<linearGradient x1="9.092529" y1="22.750782" x2="38.907623" y2="22.750782" id="paint_linear_84_3495_0" gradientUnits="userSpaceOnUse">
			<stop stop-color="#0CBAF1"/>
			<stop offset="1.000000" stop-color="#E95CE9"/>
		</linearGradient>
		<linearGradient x1="18.284912" y1="43.825455" x2="29.722246" y2="43.825455" id="paint_linear_84_3497_0" gradientUnits="userSpaceOnUse">
			<stop stop-color="#0CBAF1"/>
			<stop offset="1.000000" stop-color="#E95CE9"/>
		</linearGradient>
		<linearGradient x1="18.130493" y1="17.798840" x2="29.869637" y2="17.798840" id="paint_linear_84_3499_0" gradientUnits="userSpaceOnUse">
			<stop stop-color="#0CBAF1"/>
			<stop offset="1.000000" stop-color="#E95CE9"/>
		</linearGradient>
		<linearGradient x1="20.195190" y1="25.150930" x2="27.804876" y2="25.150930" id="paint_linear_84_3500_0" gradientUnits="userSpaceOnUse">
			<stop stop-color="#0CBAF1"/>
			<stop offset="1.000000" stop-color="#E95CE9"/>
		</linearGradient>
		<linearGradient x1="19.431641" y1="33.462845" x2="28.568420" y2="33.462845" id="paint_linear_84_3502_0" gradientUnits="userSpaceOnUse">
			<stop stop-color="#0CBAF1"/>
			<stop offset="1.000000" stop-color="#E95CE9"/>
		</linearGradient>
		<linearGradient x1="23.296875" y1="15.706469" x2="24.703125" y2="15.706469" id="paint_linear_84_3504_0" gradientUnits="userSpaceOnUse">
			<stop stop-color="#0CBAF1"/>
			<stop offset="1.000000" stop-color="#E95CE9"/>
		</linearGradient>
		<linearGradient x1="19.432129" y1="29.828125" x2="28.567972" y2="29.828125" id="paint_linear_84_3506_0" gradientUnits="userSpaceOnUse">
			<stop stop-color="#0CBAF1"/>
			<stop offset="1.000000" stop-color="#E95CE9"/>
		</linearGradient>
		<linearGradient x1="23.290527" y1="1.353750" x2="24.696777" y2="1.353750" id="paint_linear_84_3508_0" gradientUnits="userSpaceOnUse">
			<stop stop-color="#0CBAF1"/>
			<stop offset="1.000000" stop-color="#E95CE9"/>
		</linearGradient>
		<linearGradient x1="40.506470" y1="19.765625" x2="43.172531" y2="19.765625" id="paint_linear_84_3510_0" gradientUnits="userSpaceOnUse">
			<stop stop-color="#0CBAF1"/>
			<stop offset="1.000000" stop-color="#E95CE9"/>
		</linearGradient>
		<linearGradient x1="4.827393" y1="19.765625" x2="7.493455" y2="19.765625" id="paint_linear_84_3512_0" gradientUnits="userSpaceOnUse">
			<stop stop-color="#0CBAF1"/>
			<stop offset="1.000000" stop-color="#E95CE9"/>
		</linearGradient>
		<linearGradient x1="35.465820" y1="6.746305" x2="37.762978" y2="6.746305" id="paint_linear_84_3514_0" gradientUnits="userSpaceOnUse">
			<stop stop-color="#0CBAF1"/>
			<stop offset="1.000000" stop-color="#E95CE9"/>
		</linearGradient>
		<linearGradient x1="10.236938" y1="32.784389" x2="12.534096" y2="32.784389" id="paint_linear_84_3516_0" gradientUnits="userSpaceOnUse">
			<stop stop-color="#0CBAF1"/>
			<stop offset="1.000000" stop-color="#E95CE9"/>
		</linearGradient>
		<linearGradient x1="35.465820" y1="32.784389" x2="37.762978" y2="32.784389" id="paint_linear_84_3518_0" gradientUnits="userSpaceOnUse">
			<stop stop-color="#0CBAF1"/>
			<stop offset="1.000000" stop-color="#E95CE9"/>
		</linearGradient>
		<linearGradient x1="10.236938" y1="6.746305" x2="12.534096" y2="6.746305" id="paint_linear_84_3520_0" gradientUnits="userSpaceOnUse">
			<stop stop-color="#0CBAF1"/>
			<stop offset="1.000000" stop-color="#E95CE9"/>
		</linearGradient>
		<linearGradient x1="18.285034" y1="43.591797" x2="26.991783" y2="43.591797" id="paint_linear_84_3522_0" gradientUnits="userSpaceOnUse">
			<stop stop-color="#0CBAF1"/>
			<stop offset="1.000000" stop-color="#E95CE9"/>
		</linearGradient>
	</defs>
	<rect id="design" rx="0.000000" width="47.000000" height="47.000000" transform="translate(0.500000 0.500000)" fill="#FFFFFF" fill-opacity="0"/>
	<g clip-path="url(#clip84_3487)">
		<mask id="mask84_3491" mask-type="alpha" maskUnits="userSpaceOnUse" x="0.000000" y="0.000000" width="48.000000" height="48.000000">
			<path id="path4155" d="M0 0L48 0L48 48L0 48L0 0Z" fill="#000000" fill-opacity="1.000000" fill-rule="nonzero"/>
		</mask>
		<g mask="url(#mask84_3491)">
			<path id="path4161 (Stroke)" d="M18.96 39.65C17.93 39.65 17.09 38.81 17.09 37.78L17.09 37.78L17.08 36.08C17.08 36.08 17.08 36.08 17.08 36.08C17.08 33.31 16.06 30.62 14.15 28.59L14.15 28.59C11.91 26.2 10.52 22.99 10.49 19.47C10.43 12.08 16.41 5.95 23.8 5.85C27.74 5.79 31.3 7.42 33.8 10.07C34.07 10.35 34.51 10.36 34.79 10.09C35.08 9.83 35.09 9.38 34.82 9.1C32.06 6.18 28.13 4.38 23.78 4.44C15.62 4.56 9.02 11.31 9.09 19.48C9.12 23.37 10.65 26.91 13.13 29.55C14.78 31.31 15.67 33.66 15.68 36.09L15.68 36.09L15.69 37.79C15.69 37.79 15.69 37.79 15.69 37.79C15.69 39.59 17.15 41.05 18.96 41.05L29.06 41.05C30.86 41.05 32.33 39.58 32.33 37.78L32.33 37.77L32.32 36.01C32.32 36.01 32.32 36.01 32.32 36.01C32.31 33.62 33.19 31.31 34.82 29.59L34.34 29.15L34.82 29.59C37.35 26.92 38.9 23.32 38.9 19.35C38.9 16.46 38.08 13.77 36.67 11.49C36.46 11.16 36.03 11.06 35.7 11.26C35.37 11.47 35.27 11.9 35.47 12.23C36.76 14.3 37.5 16.73 37.5 19.35C37.5 22.94 36.09 26.21 33.8 28.63C31.91 30.62 30.91 33.28 30.91 36.01L30.91 36.02L30.92 37.78C30.92 37.78 30.92 37.78 30.92 37.78C30.92 38.81 30.09 39.64 29.06 39.64L18.96 39.65Z" fill="url(#paint_linear_84_3495_0)" fill-opacity="1.000000" fill-rule="evenodd"/>
			<path id="path4165 (Stroke)" d="M21.42 48C19.68 48 18.27 46.58 18.28 44.84L21.42 48ZM21.42 48L26.56 47.99C28.29 47.99 29.69 46.6 29.7 44.87L29.72 40.35C29.72 40.16 29.64 39.99 29.51 39.85C29.38 39.72 29.2 39.65 29.01 39.65L19 39.65C18.62 39.65 18.3 39.96 18.3 40.35L18.28 44.84L21.42 48ZM19.69 44.85L19.7 41.05L28.31 41.05L28.29 44.87C28.29 45.82 27.51 46.59 26.56 46.59L21.42 46.59C20.46 46.59 19.68 45.81 19.69 44.85Z" fill="url(#paint_linear_84_3497_0)" fill-opacity="1.000000" fill-rule="evenodd"/>
			<path id="path4169 (Stroke)" d="M20.19 23.77C20.21 24.14 20.52 24.43 20.89 24.43L27.09 24.43C27.44 24.43 27.74 24.17 27.79 23.82C27.86 23.3 28.02 22.59 28.38 21.81L28.38 21.81C28.75 21 29.21 20.38 29.59 19.96L29.59 19.96C29.89 19.63 29.95 19.14 29.74 18.74L20.19 23.77ZM21.1 21.48C21.33 22.04 21.45 22.57 21.52 23.02L21.1 21.48ZM21.52 23.02L26.5 23.02C26.62 22.5 26.8 21.89 27.1 21.23C27.49 20.37 27.97 19.69 28.39 19.2C27.84 18.19 27.2 17.12 26.47 16.01L26.47 16.01C25.64 14.75 24.8 13.63 23.99 12.62C23.15 13.63 22.29 14.78 21.44 16.08C20.74 17.15 20.13 18.19 19.61 19.17C20.09 19.67 20.68 20.43 21.1 21.48L21.52 23.02ZM19.49 19.39C19.49 19.39 19.49 19.39 19.49 19.39ZM28.54 19.02C28.54 19.02 28.54 19.02 28.54 19.02C28.54 19.02 28.54 19.02 28.54 19.02ZM28.5 19.41C28.5 19.41 28.5 19.41 28.5 19.41ZM20.19 23.77C20.16 23.31 20.07 22.69 19.79 22L20.19 23.77ZM19.79 22L19.79 22ZM19.79 22C19.42 21.05 18.86 20.39 18.45 19.99L19.79 22ZM18.45 19.99C18.1 19.66 18.03 19.14 18.25 18.73L18.45 19.99ZM29.74 18.74C29.14 17.63 28.45 16.46 27.64 15.24C26.76 13.9 25.87 12.7 25 11.64L29.74 18.74ZM18.25 18.73C18.82 17.65 19.48 16.5 20.27 15.31L18.25 18.73ZM22.98 11.63C22.09 12.7 21.17 13.93 20.27 15.31L20.27 15.31L22.98 11.63ZM25 11.64C24.48 11 23.5 11 22.98 11.63L22.98 11.63L25 11.64Z" fill="url(#paint_linear_84_3499_0)" fill-opacity="1.000000" fill-rule="evenodd"/>
			<path id="path4171 (Stroke)" d="M20.19 26.57C20.19 26.96 20.51 27.27 20.89 27.27L27.1 27.27C27.49 27.27 27.8 26.96 27.8 26.57L27.8 23.73C27.8 23.34 27.49 23.02 27.1 23.02L20.89 23.02C20.51 23.02 20.19 23.34 20.19 23.73L20.19 26.57ZM21.6 25.86L21.6 24.43L26.39 24.43L26.39 25.86L21.6 25.86Z" fill="url(#paint_linear_84_3500_0)" fill-opacity="1.000000" fill-rule="evenodd"/>
			<path id="path4175 (Stroke)" d="M27.86 41.05C28.25 41.05 28.56 40.74 28.56 40.35L28.56 27.32C28.56 26.51 27.91 25.86 27.11 25.86L20.88 25.86C20.08 25.86 19.43 26.51 19.43 27.32L19.43 37.31C19.43 37.7 19.74 38.01 20.13 38.01C20.52 38.01 20.83 37.7 20.83 37.31L20.83 27.32C20.83 27.29 20.85 27.27 20.88 27.27L27.11 27.27C27.14 27.27 27.16 27.29 27.16 27.32L27.16 40.35C27.16 40.74 27.47 41.05 27.86 41.05Z" fill="url(#paint_linear_84_3502_0)" fill-opacity="1.000000" fill-rule="evenodd"/>
			<path id="path4179 (Stroke)" d="M24 20.24C24.38 20.24 24.7 19.93 24.7 19.54L24.7 11.86C24.7 11.47 24.38 11.16 24 11.16C23.61 11.16 23.29 11.47 23.29 11.86L23.29 19.54C23.29 19.93 23.61 20.24 24 20.24Z" fill="url(#paint_linear_84_3504_0)" fill-opacity="1.000000" fill-rule="evenodd"/>
			<path id="path4183 (Stroke)" d="M19.43 29.82C19.43 30.21 19.74 30.53 20.13 30.53L27.86 30.53C28.25 30.53 28.56 30.21 28.56 29.82C28.56 29.43 28.25 29.12 27.86 29.12L20.13 29.12C19.74 29.12 19.43 29.43 19.43 29.82Z" fill="url(#paint_linear_84_3506_0)" fill-opacity="1.000000" fill-rule="evenodd"/>
			<path id="path4187 (Stroke)" d="M23.99 2.7C24.38 2.7 24.69 2.39 24.69 2L24.69 0.7C24.69 0.31 24.38 0 23.99 0C23.6 0 23.29 0.31 23.29 0.7L23.29 2C23.29 2.39 23.6 2.7 23.99 2.7Z" fill="url(#paint_linear_84_3508_0)" fill-opacity="1.000000" fill-rule="evenodd"/>
			<path id="path4191 (Stroke)" d="M40.5 19.76C40.5 20.15 40.82 20.46 41.2 20.46L42.46 20.46C42.85 20.46 43.17 20.15 43.17 19.76C43.17 19.37 42.85 19.06 42.46 19.06L41.2 19.06C40.82 19.06 40.5 19.37 40.5 19.76Z" fill="url(#paint_linear_84_3510_0)" fill-opacity="1.000000" fill-rule="evenodd"/>
			<path id="path4195 (Stroke)" d="M4.82 19.76C4.82 20.15 5.14 20.46 5.53 20.46L6.79 20.46C7.17 20.46 7.49 20.15 7.49 19.76C7.49 19.37 7.17 19.06 6.79 19.06L5.53 19.06C5.14 19.06 4.82 19.37 4.82 19.76Z" fill="url(#paint_linear_84_3512_0)" fill-opacity="1.000000" fill-rule="evenodd"/>
			<path id="path4199 (Stroke)" d="M35.67 7.71C35.95 7.98 36.4 7.97 36.67 7.69L37.56 6.77C37.83 6.49 37.82 6.05 37.54 5.78C37.27 5.51 36.82 5.51 36.55 5.79L35.66 6.71C35.39 6.99 35.4 7.44 35.67 7.71Z" fill="url(#paint_linear_84_3514_0)" fill-opacity="1.000000" fill-rule="evenodd"/>
			<path id="path4203 (Stroke)" d="M10.45 33.74C10.72 34.01 11.17 34.01 11.44 33.73L12.33 32.81C12.6 32.53 12.59 32.08 12.32 31.81C12.04 31.54 11.59 31.55 11.32 31.83L10.43 32.75C10.16 33.03 10.17 33.47 10.45 33.74Z" fill="url(#paint_linear_84_3516_0)" fill-opacity="1.000000" fill-rule="evenodd"/>
			<path id="path4207 (Stroke)" d="M37.54 33.74C37.82 33.47 37.83 33.03 37.56 32.75L36.67 31.83C36.4 31.55 35.95 31.54 35.67 31.81C35.4 32.08 35.39 32.53 35.66 32.81L36.55 33.73C36.82 34.01 37.27 34.01 37.54 33.74Z" fill="url(#paint_linear_84_3518_0)" fill-opacity="1.000000" fill-rule="evenodd"/>
			<path id="path4211 (Stroke)" d="M12.32 7.71C12.59 7.44 12.6 6.99 12.33 6.71L11.44 5.79C11.17 5.51 10.72 5.51 10.45 5.78C10.17 6.05 10.16 6.49 10.43 6.77L11.32 7.69C11.59 7.97 12.04 7.98 12.32 7.71Z" fill="url(#paint_linear_84_3520_0)" fill-opacity="1.000000" fill-rule="evenodd"/>
			<path id="path4215 (Stroke)" d="M18.28 43.59C18.28 43.98 18.59 44.29 18.98 44.29L26.28 44.29C26.67 44.29 26.99 43.98 26.99 43.59C26.99 43.2 26.67 42.88 26.28 42.88L18.98 42.88C18.59 42.88 18.28 43.2 18.28 43.59Z" fill="url(#paint_linear_84_3522_0)" fill-opacity="1.000000" fill-rule="evenodd"/>
		</g>
	</g>
</svg>
